<?xml version="1.0" encoding="UTF-8" standalone="no"?>
<!-- Created with Inkscape (http://www.inkscape.org/) -->
<svg id="svg3938" xmlns:rdf="http://www.w3.org/1999/02/22-rdf-syntax-ns#" xmlns="http://www.w3.org/2000/svg" viewBox="0 0 35.734 36.997" version="1.1" xmlns:cc="http://creativecommons.org/ns#" xmlns:dc="http://purl.org/dc/elements/1.1/">
 <metadata id="metadata3943">
  <rdf:RDF>
   <cc:Work rdf:about="">
    <dc:format>image/svg+xml</dc:format>
    <dc:type rdf:resource="http://purl.org/dc/dcmitype/StillImage"/>
    <dc:title/>
   </cc:Work>
  </rdf:RDF>
 </metadata>
 <g id="layer1" transform="translate(-176.41866,-171.00659)">
  <path id="path3050" fill="#494858" d="m391.94,693.32a2.4622,2.7148,0,1,1,-4.9245,0,2.4622,2.7148,0,1,1,4.9245,0z" transform="matrix(1.3846153,0,0,1.3023256,-359.44779,-712.72378)"/>
  <path id="path3050-7" fill="#494858" d="m391.94,693.32a2.4622,2.7148,0,1,1,-4.9245,0,2.4622,2.7148,0,1,1,4.9245,0z" transform="matrix(1.3846153,0,0,1.3023256,-355.00809,-702.32913)"/>
  <path id="path3050-5" fill="#494858" d="m391.94,693.32a2.4622,2.7148,0,1,1,-4.9245,0,2.4622,2.7148,0,1,1,4.9245,0z" transform="matrix(1.3846153,0,0,1.3023256,-344.92685,-698.45539)"/>
  <path id="path3050-8" fill="#494858" d="m391.94,693.32a2.4622,2.7148,0,1,1,-4.9245,0,2.4622,2.7148,0,1,1,4.9245,0z" transform="matrix(1.3846153,0,0,1.3023256,-334.82532,-702.496)"/>
  <path id="path3050-77" fill="#494858" d="m391.94,693.32a2.4622,2.7148,0,1,1,-4.9245,0,2.4622,2.7148,0,1,1,4.9245,0z" transform="matrix(1.3846153,0,0,1.3023256,-330.53218,-712.7238)"/>
  <path id="path3050-84" fill="#494858" d="m391.94,693.32a2.4622,2.7148,0,1,1,-4.9245,0,2.4622,2.7148,0,1,1,4.9245,0z" transform="matrix(1.3846153,0,0,1.3023256,-334.95159,-722.57278)"/>
  <path id="path3050-88" fill="#494858" d="m391.94,693.32a2.4622,2.7148,0,1,1,-4.9245,0,2.4622,2.7148,0,1,1,4.9245,0z" transform="matrix(1.3846153,0,0,1.3023256,-355.02839,-722.82532)"/>
  <path id="path3050-88-7" fill="#494858" d="m391.94,693.32a2.4622,2.7148,0,1,1,-4.9245,0,2.4622,2.7148,0,1,1,4.9245,0z" transform="matrix(1.7692307,0,0,1.5348837,-494.78879,-873.70756)"/>
  <path id="path3050-88-7-5" fill="#494858" d="m391.94,693.32a2.4622,2.7148,0,1,1,-4.9245,0,2.4622,2.7148,0,1,1,4.9245,0z" transform="matrix(2.128205,0,0,1.7906977,-634.79039,-1065.6516)"/>
  <rect id="rect3913" height="8.0812" width="2.3991" y="179.72" x="193.09" fill="#494858"/>
  <path id="path3915" stroke-linejoin="round" d="m405.96,677.28a2.4622,2.4622,0,1,1,-4.9245,0,2.4622,2.4622,0,1,1,4.9245,0z" transform="translate(-209.43931,-501.41194)" stroke="#cbcbcb" stroke-linecap="round" stroke-miterlimit="4" stroke-dasharray="none" stroke-width="0.60000002" fill="none"/>
 </g>
</svg>
