<?xml version="1.0" encoding="UTF-8" standalone="no"?>
<!-- Created with Inkscape (http://www.inkscape.org/) -->
<svg id="svg4080" xmlns:rdf="http://www.w3.org/1999/02/22-rdf-syntax-ns#" xmlns="http://www.w3.org/2000/svg" viewBox="0 0 44.565 26.134" version="1.1" xmlns:cc="http://creativecommons.org/ns#" xmlns:dc="http://purl.org/dc/elements/1.1/">
 <metadata id="metadata4085">
  <rdf:RDF>
   <cc:Work rdf:about="">
    <dc:format>image/svg+xml</dc:format>
    <dc:type rdf:resource="http://purl.org/dc/dcmitype/StillImage"/>
    <dc:title/>
   </cc:Work>
  </rdf:RDF>
 </metadata>
 <g id="layer1" fill="#494858" transform="translate(-183.43164,-356.43799)">
  <path id="path3050-7-3" d="m391.94,693.32a2.4622,2.7148,0,1,1,-4.9245,0,2.4622,2.7148,0,1,1,4.9245,0z" transform="matrix(1.3846153,0,0,1.3023256,-352.43481,-533.79157)"/>
  <path id="path3050-7-5" d="m391.94,693.32a2.4622,2.7148,0,1,1,-4.9245,0,2.4622,2.7148,0,1,1,4.9245,0z" transform="matrix(1.3846153,0,0,1.3023256,-342.97231,-542.94978)"/>
  <path id="path3050-7-2" d="m391.94,693.32a2.4622,2.7148,0,1,1,-4.9245,0,2.4622,2.7148,0,1,1,4.9245,0z" transform="matrix(1.3846153,0,0,1.3023256,-314.68804,-537.14141)"/>
  <path id="path4030" d="m188.1,366.73,6.3766-5.6821,1.3258,1.7678-6.4397,6.2503z"/>
  <path id="path4032" d="m198.26,361.24,8.5232,9.849-2.0834,1.7678-8.1444-10.038z"/>
  <path id="path4036" d="m216.13,372.47,1.7678,2.2728,6.4397-6.3135-2.1466-1.1364z"/>
  <path id="path3050-7-5-6" d="m210.11,371.42c-2.8971,0.28613-5.1562,2.6695-5.1562,5.5625,0,3.0858,2.577,5.5938,5.75,5.5938s5.75-2.5079,5.75-5.5938c0-3.0858-2.577-5.5625-5.75-5.5625-0.19831,0-0.40061-0.0191-0.59375,0zm0.5625,2.8125c1.6214,0,2.9375,1.2056,2.9375,2.6875s-1.3161,2.6875-2.9375,2.6875-2.9375-1.2056-2.9375-2.6875,1.3161-2.6875,2.9375-2.6875z"/>
 </g>
</svg>
