<?xml version="1.0" encoding="UTF-8" standalone="no"?>
<!-- Created with Inkscape (http://www.inkscape.org/) -->
<svg id="svg5365" xmlns:rdf="http://www.w3.org/1999/02/22-rdf-syntax-ns#" xmlns="http://www.w3.org/2000/svg" viewBox="0 0 27.281 32.594" version="1.1" xmlns:cc="http://creativecommons.org/ns#" xmlns:dc="http://purl.org/dc/elements/1.1/">
 <metadata id="metadata5370">
  <rdf:RDF>
   <cc:Work rdf:about="">
    <dc:format>image/svg+xml</dc:format>
    <dc:type rdf:resource="http://purl.org/dc/dcmitype/StillImage"/>
    <dc:title/>
   </cc:Work>
  </rdf:RDF>
 </metadata>
 <g id="layer1" transform="translate(-397.78795,-318.92245)">
  <path id="path3890" fill="#4b446d" d="m411.44,318.92c-7.5302,0-13.656,5.7379-13.656,12.781,0,4.1439,2.1331,7.7955,5.4062,10.125l8.0625,9.6875,8.5625-9.7812c1.5977-1.1676,2.8999-2.6625,3.8125-4.375l0.4375-0.5h-0.1875c0.75594-1.5853,1.1875-3.3083,1.1875-5.1562,0-7.0434-6.0949-12.781-13.625-12.781zm-0.0937,2.6875c5.227,0,9.4375,4.1084,9.4375,9.1875,0,5.079-4.2105,9.2188-9.4375,9.2188s-9.4688-4.1397-9.4688-9.2188c0-5.079,4.2418-9.1875,9.4688-9.1875z"/>
 </g>
</svg>
